<?xml version="1.0" standalone="no"?>
<!DOCTYPE svg PUBLIC "-//W3C//DTD SVG 1.1//EN" "http://www.w3.org/Graphics/SVG/1.1/DTD/svg11.dtd" >
<!--
2013-9-30: Created.
-->
<svg>
<metadata>
Created by iconfont
</metadata>
<defs>

<font id="iconfont" horiz-adv-x="1024" >
  <font-face
    font-family="iconfont"
    font-weight="500"
    font-stretch="normal"
    units-per-em="1024"
    ascent="896"
    descent="-128"
  />
    <missing-glyph />
    
    <glyph glyph-name="icon2" unicode="&#58929;" d="M1021.28261 158.745746 512.697383 667.334044 4.114203 158.745746 65.145208 97.714741 512.697383 545.272034 960.251605 97.719858Z"  horiz-adv-x="1024" />

    
    <glyph glyph-name="tubiaozhizuomoban-" unicode="&#58885;" d="M274.84009-106c-29.504 0-54.701 8.691-74.889 25.831-48.168 41.019-49.573 114.021-45.417 173.037 3.587 50.574 11.54 98.851 23.648 143.571-47.278 36.636-87.291 75.043-118.967 114.204-27.661 34.27-79.14 98.047-51.109 165.997 24.142 58.745 93.144 82.55 150.558 96.727 49.522 12.453 98.559 19.855 145.807 22.015 19.888 54.716 43.615 103.488 70.559 145.024C397.90009 815.472 440.44509 880.707 509.01609 880.707l7.856-0.302c63.085-4.87 107.308-63.06 138.818-113.21 27.048-43.334 49.101-87.405 65.597-131.07 58.94-1.934 112.959-9.466 160.633-22.401 39.526-10.594 121.693-32.617 138.975-104.157 14.937-61.602-26.847-121.457-64.92-166.722-31.877-37.944-65.901-71.682-101.173-100.329 16.844-57.624 26.71-112.406 29.337-162.897l0.013-0.279c2.033-40.758 6.264-125.574-56.199-164.134-16.473-10.212-37.776-15.393-63.3-15.396-45.369 0-91.717 15.954-115.304 25.463-47.993 19.488-92.305 42.553-131.793 68.586-49.002-33.261-97.35-59.036-143.761-76.633C342.33609-94.833 308.56009-106 274.84009-106zM508.76209 867.732c-61.288-0.005-101.333-61.409-122.846-94.397-27.068-41.726-50.858-90.997-70.708-146.441l-1.478-4.127-4.378-0.17c-47.697-1.858-97.34-9.2-147.549-21.825-54.465-13.446-119.766-35.718-141.693-89.073-25.101-60.844 23.232-120.727 49.2-152.898 31.801-39.313 72.255-77.916 120.233-114.731l3.476-2.667-1.174-4.221c-12.529-45.063-20.725-93.925-24.36-145.229-3.942-55.969-2.857-124.991 40.877-162.235 17.769-15.087 40.137-22.738 66.48-22.738 31.608 0 64.015 10.754 94.328 22.375 46.611 17.673 95.276 43.805 144.666 77.68l3.625 2.487 3.656-2.444c39.668-26.543 84.449-50.016 133.099-69.773 38.641-15.579 78.899-24.515 110.434-24.515 23.075 0.003 42.073 4.528 56.473 13.454 55.948 34.536 51.976 114.176 50.064 152.449l-0.013 0.264c-2.634 50.67-12.744 105.866-30.047 164.035l-1.245 4.186 3.41 2.73c35.822 28.695 70.391 62.776 102.748 101.29 36.106 42.925 75.806 99.368 62.241 155.317-15.475 64.048-92.612 84.725-129.681 94.66-47.935 13.005-102.431 20.436-162.047 22.109l-4.383 0.124-1.521 4.112c-16.349 44.18-38.54 88.857-65.96 132.787-29.881 47.558-71.506 102.733-128.57 107.144l-7.357 0.281zM519.27009 165.12L352.79409 453.467l11.241 6.49L519.27009 191.08l155.238 268.877 11.241-6.49z"  horiz-adv-x="1024" />

    
    <glyph glyph-name="home-page" unicode="&#58919;" d="M729.381-82.034h-137.551c-22.066 0-39.97 18.012-39.97 40.227v273.639c0 1.872 0.016 3.697 0.047 5.454h-79.902c0.016-1.779 0.038-3.604 0.038-5.454v-273.639c0-22.207-17.91-40.227-39.978-40.227h-137.541c-78.355 0-142.101 69.167-142.101 154.211v218.337h-7.356c-41.694 0-76.057 21.375-91.909 57.205-12.987 29.547-11.573 76.918 31.301 121.534l323.086 336.181c27.706 28.77 64.786 44.599 104.423 44.599s76.709-15.83 104.399-44.577l323.133-336.181c43.038-44.763 44.351-92.19 31.232-121.642-15.674-35.691-50.044-57.105-91.863-57.105h-7.362v-218.352c-0.022-85.044-63.769-154.211-142.125-154.211v0zM631.825-1.588h97.564c38.394 0 62.145 38.285 62.145 73.765v258.572c0 22.198 17.91 40.227 39.978 40.227h47.333c12.956 0 16.793 4.731 18.812 9.375 1.515 4.187 0.194 16.498-15.658 32.972l-323.086 336.159c-24.91 25.91-68.957 25.91-93.921-0.016l-323.071-336.149c-15.869-16.513-17.166-28.878-15.628-33.111 1.958-4.45 5.833-9.228 18.751-9.228h47.357c22.066 0 39.978-18.012 39.978-40.227v-258.578c0-35.481 23.744-73.765 62.145-73.765h97.564l-0.116 242.719c-0.357 18.198-0.8 40.855 16.654 58.751 17.429 17.881 41.198 17.881 48.988 17.881h108.702c7.813 0 31.558 0 48.988-17.881 17.429-17.903 16.995-40.561 16.638-58.751l-0.116-9.298v-233.413zM631.825-1.588z"  horiz-adv-x="1024" />

    
    <glyph glyph-name="youhuiquan" unicode="&#59020;" d="M960-128H64c-36.266667 0-64 27.733333-64 64V149.333333h21.333333c36.266667 0 64 27.733333 64 64s-27.733333 64-64 64H0V490.666667c0 36.266667 27.733333 64 64 64h896c36.266667 0 64-27.733333 64-64v-234.666667h-21.333333c-36.266667 0-64-27.733333-64-64s27.733333-64 64-64h21.333333v-192c0-36.266667-27.733333-64-64-64zM42.666667 108.8V-64c0-12.8 8.533333-21.333333 21.333333-21.333333h896c12.8 0 21.333333 8.533333 21.333333 21.333333v151.466667c-49.066667 10.666667-85.333333 53.333333-85.333333 104.533333s36.266667 93.866667 85.333333 104.533333V490.666667c0 12.8-8.533333 21.333333-21.333333 21.333333H64c-12.8 0-21.333333-8.533333-21.333333-21.333333v-172.8c49.066667-10.666667 85.333333-53.333333 85.333333-104.533334s-36.266667-93.866667-85.333333-104.533333zM356.266667 710.4l200.533333 138.666667c10.666667 6.4 23.466667 4.266667 29.866667-6.4l219.733333-317.866667h51.2l-236.8 341.333333C601.6 896 561.066667 902.4 531.2 883.2L313.6 731.733333l42.666667-21.333333zM128 526.933333L243.2 725.333333c2.133333 4.266667 6.4 8.533333 12.8 10.666667 6.4 2.133333 10.666667 0 17.066667-2.133333l358.4-206.933334h85.333333L294.4 770.133333c-14.933333 8.533333-32 10.666667-49.066667 6.4-17.066667-4.266667-29.866667-14.933333-38.4-29.866666l-128-219.733334H128zM654.933333 185.6c10.666667 0 23.466667-8.533333 23.466667-23.466667 0-10.666667-8.533333-23.466667-23.466667-23.466666h-119.466666v-123.733334c0-10.666667-8.533333-23.466667-23.466667-23.466666-10.666667 0-23.466667 8.533333-23.466667 23.466666v123.733334h-119.466666c-10.666667 0-23.466667 8.533333-23.466667 23.466666 0 10.666667 8.533333 23.466667 23.466667 23.466667h119.466666v59.733333h-119.466666c-10.666667 0-23.466667 8.533333-23.466667 23.466667 0 10.666667 8.533333 23.466667 23.466667 23.466667h87.466666l-104.533333 104.533333c-8.533333 8.533333-8.533333 23.466667 0 32s23.466667 8.533333 32 0l125.866667-125.866667 125.866666 125.866667c8.533333 8.533333 23.466667 8.533333 32 0s8.533333-23.466667 0-32l-104.533333-104.533333h87.466667c10.666667 0 23.466667-8.533333 23.466666-23.466667 0-10.666667-8.533333-23.466667-23.466666-23.466667h-119.466667v-59.733333h123.733333z"  horiz-adv-x="1024" />

    
    <glyph glyph-name="youhuiquan1" unicode="&#58886;" d="M963.563 477.594c26.899 7.844 46.919 34.493 46.919 62.857v191.274c0 39.601-28.501 68.352-67.772 68.352h-862.722c-39.27 0-67.772-28.75-67.772-68.352v-187.186c0-30.35 17.15-55.317 42.916-62.857 40.403-16.349 65.452-54.515 65.452-99.973 0-43.33-26.87-84.231-65.479-99.945-25.74-7.539-42.89-32.532-42.89-62.828v-191.302c0-39.601 28.501-68.324 67.772-68.324h858.719c20.575 0 38.469 7.732 50.373 21.79 11.046 13.035 15.742 30.185 13.34 48.523v112.454c0 0 0 0 0 0 0 15.252-12.364 27.616-27.616 27.616-15.252 0-27.616-12.364-27.616-27.616 0 0 0 0 0 0v-114.471l0.387-4.474c0.47-2.899 0.25-5.302-0.58-6.324-0.967-1.132-3.921-2.292-8.285-2.292h-858.719c-6.213 0-12.539 1.548-12.539 13.090v191.302c0 5.966 2.292 9.637 3.259 9.831l3.23 1.051c60.923 23.778 101.851 84.812 101.851 151.892 0 69.181-39.024 127.397-101.851 151.921l-3.259 1.076c-0.911 0.221-3.204 3.977-3.204 9.831v187.186c0 11.542 6.324 13.119 12.539 13.119h862.693c6.213 0 12.539-1.548 12.539-13.119v-191.274c0-3.894-3.755-8.948-7.29-9.86l-3.23-1.051c-63.794-24.882-101.851-80.173-101.851-147.861 0-67.136 38.112-126.651 97.102-151.589 3.179-1.382 6.88-2.187 10.771-2.187 15.255 0 27.62 12.367 27.62 27.62 0 11.364-6.863 21.127-16.673 25.365-38.704 16.364-63.558 55.883-63.558 100.786-0.027 44.325 23.806 79.205 65.424 95.941zM670.741 594.053c-5.347 5.719-12.939 9.283-21.361 9.283s-16.014-3.565-21.346-9.266l-116.089-117.387-116.047 117.371c-5.342 5.717-12.93 9.282-21.348 9.282s-16.004-3.565-21.333-9.265c-5.649-5.515-9.145-13.183-9.145-21.668 0-8.484 3.494-16.153 9.123-21.646l115.998-117.323h-88.541c-18.31 0-30.516-12.372-30.516-30.93s12.207-30.93 30.516-30.93h100.801v-52.389h-100.801c-18.31 0-30.516-12.345-30.516-30.849 0-18.615 12.207-30.959 30.516-30.959h100.801v-70.919c0-18.615 12.179-30.959 30.489-30.959s30.516 12.345 30.516 30.959v70.919h94.724c18.283 0 30.489 12.345 30.489 30.959 0 18.502-12.179 30.849-30.489 30.849h-94.724v52.389h94.724c18.283 0 30.489 12.372 30.489 30.93s-12.179 30.93-30.489 30.93h-82.464l116.018 117.316c5.635 5.498 9.129 13.166 9.129 21.651s-3.494 16.153-9.123 21.646z"  horiz-adv-x="1024" />

    
    <glyph glyph-name="xia" unicode="&#58936;" d="M34.816 537.6l445.44-445.44c15.36-15.36 40.448-15.36 55.808 0l445.44 445.44c15.36 15.36 15.36 40.448 0 55.808s-40.448 15.36-55.808 0l-417.792-417.792-417.792 417.792c-15.36 15.36-40.448 15.36-55.808 0s-15.36-40.448 0.512-55.808z"  horiz-adv-x="1024" />

    
    <glyph glyph-name="fenlei" unicode="&#59060;" d="M64 832v-320h320V832H64z m0 64h320a64 64 0 0 0 64-64v-320a64 64 0 0 0-64-64H64a64 64 0 0 0-64 64V832a64 64 0 0 0 64 64z m0-576h320a64 64 0 0 0 64-64v-320a64 64 0 0 0-64-64H64a64 64 0 0 0-64 64v320a64 64 0 0 0 64 64z m0-64v-320h320v320H64z m576 640h320a64 64 0 0 0 64-64v-320a64 64 0 0 0-64-64h-320a64 64 0 0 0-64 64V832a64 64 0 0 0 64 64z m0-64v-320h320V832h-320z m0-608a32 32 0 0 0 0 64h320a32 32 0 0 0 0-64h-320z m0-159.808a32 32 0 0 0 0 64h320a32 32 0 0 0 0-64h-320z m0-160.192a32 32 0 0 0 0 64h320a32 32 0 0 0 0-64h-320z"  horiz-adv-x="1024" />

    
    <glyph glyph-name="dui" unicode="&#58921;" d="M512.83968 895.32416C229.9136 895.32416 1.1776 666.56256 1.1776 383.66208S229.9392-128 512.83968-128s511.6672 228.7616 511.6672 511.6672c0 282.89536-228.736 511.65696-511.6672 511.65696z m0-963.14368c-246.79936 0-451.4816 204.65664-451.4816 451.48672 0 246.81984 204.68224 451.45088 451.4816 451.45088 246.79936 0 451.4816-204.65664 451.4816-451.4816s-204.68224-451.456-451.4816-451.456zM782.47936 562.11456a40.94976 40.94976 0 0 1-57.90208 0l-260.51072-260.51072-144.72704 144.73216a40.94976 40.94976 0 0 1-57.90208 1.17248 40.94464 40.94464 0 0 1 0-59.07456l173.67552-173.67552a40.94976 40.94976 0 0 1 57.9072 0l289.4592 289.4592a40.94464 40.94464 0 0 1 0 57.89696z"  horiz-adv-x="1024" />

    
    <glyph glyph-name="member" unicode="&#58884;" d="M512 432c-41.6 0-83.2 12.8-118.4 38.4-41.6 32-70.4 80-80 131.2-6.4 54.4 6.4 105.6 38.4 150.4 32 41.6 80 70.4 131.2 80 54.4 6.4 105.6-6.4 147.2-38.4 41.6-32 70.4-80 80-131.2 6.4-54.4-6.4-105.6-38.4-150.4s-80-70.4-131.2-80H512zM512 768h-19.2c-35.2-6.4-67.2-25.6-89.6-54.4-22.4-28.8-32-64-25.6-102.4 6.4-35.2 25.6-67.2 54.4-89.6 28.8-22.4 64-32 102.4-25.6 35.2 6.4 67.2 25.6 89.6 54.4 22.4 28.8 32 64 25.6 102.4-6.4 35.2-25.6 67.2-54.4 89.6-25.6 16-54.4 25.6-83.2 25.6zM627.2-64h-230.4c-166.4 0-262.4 73.6-262.4 204.8 0 144 118.4 262.4 262.4 262.4h230.4c144 0 262.4-118.4 262.4-262.4 0-131.2-96-204.8-262.4-204.8z m-230.4 403.2c-108.8 0-198.4-89.6-198.4-198.4 0-115.2 108.8-140.8 198.4-140.8h230.4c89.6 0 198.4 25.6 198.4 140.8 0 108.8-89.6 198.4-198.4 198.4h-230.4z"  horiz-adv-x="1024" />

    
    <glyph glyph-name="zhuye" unicode="&#58900;" d="M922.885 443.025L589.977 789.263c-20.69 21.493-48.346 33.333-77.979 33.333-29.63 0-57.285-11.84-77.98-33.333L101.113 443.025c-34.346-35.738-29.924-66.631-24.25-79.531 4.041-9.15 17.72-34.322 57.07-34.322h48.798v-266.346c0-60.48 43.48-117.422 105.236-117.422h141.714V227.287c0 30.23-4.58 47.059 26.314 47.059h112.009c30.884 0 26.31-16.829 26.31-47.06v-281.883h141.714c61.761 0 105.237 56.943 105.237 117.422V329.171h48.798c39.35 0 53.029 25.172 57.075 34.322 5.673 12.9 10.09 43.794-24.253 79.532z"  horiz-adv-x="1024" />

    
    <glyph glyph-name="huiyuantequan" unicode="&#58993;" d="M1010.058971 469.226057l-0.321828-0.394971L611.298743-17.554286C594.695314-51.536457 561.649371-69.485714 515.569371-69.485714c-41.998629 0-76.068571 14.7456-101.2736 43.812571l-0.3072 0.365714L13.941029 463.0528a65.170286 65.170286 0 0 0-0.438858 79.930514l128.146286 197.134629C174.357943 789.650286 238.533486 822.857143 301.421714 822.857143h428.295315c68.256914 0 129.623771-31.0272 153.117257-77.312l127.663543-196.373943a65.199543 65.199543 0 0 0-0.438858-79.945143z m-32.475428 61.776457l-0.775314 1.082515-129.009372 198.4512-0.4096 0.833828c-17.086171 34.5088-64.380343 57.709714-117.672228 57.709714H301.421714c-48.566857 0-100.293486-26.989714-125.805714-65.623771L46.840686 525.355886l-0.424229-0.541257a34.859886 34.859886 0 0 1-0.131657-42.847086l399.389257-487.541029c17.656686-20.2752 40.521143-30.134857 69.895314-30.134857 30.9248 0 50.117486 10.371657 60.386743 32.621714l0.863086 1.857829 1.345829 1.6384L977.7152 488.155429a34.859886 34.859886 0 0 1-0.131657 42.847085z m-180.1216-17.5104H225.806629c-11.556571 0-20.918857 8.104229-20.918858 18.110172 0 9.991314 9.362286 18.095543 20.918858 18.095543h571.655314c11.556571 0 20.918857-8.104229 20.918857-18.095543 0-10.005943-9.362286-18.110171-20.918857-18.110172z"  horiz-adv-x="1024" />

    
    <glyph glyph-name="gouwuche" unicode="&#58911;" d="M281.88371307 10.257239469999945c0-31.85777813 25.78962987-57.78531947 57.78532053-57.78532054 31.85777813 0 57.78531947 25.78962987 57.78531947 57.78532054 0 31.85777813-25.78962987 57.78531947-57.78531947 57.78531946-31.85777813-0.13791253-57.78531947-25.9275424-57.78532053-57.78531946z m0 0M732.71953813 10.257239469999945c0-31.85777813 25.78962987-57.78531947 57.78532054-57.78532054 31.85777813 0 57.78531947 25.78962987 57.78531946 57.78532054 0 31.85777813-25.78962987 57.78531947-57.78531946 57.78531946-31.85777813-0.13791253-57.78531947-25.9275424-57.78532054-57.78531946z m0 0M977.92788907 651.27434347c-29.3753536 35.71932693-74.33481493 36.270976-82.88538774 35.995152H199.68788907l-23.72094294 104.2618176c-3.17198613 14.06707093-15.58410773 23.996768-30.06491626 23.996768h-91.573872c-16.963232 0-30.75447787-13.79124587-30.75447787-30.75447787s13.79124587-30.75447787 30.75447787-30.75447893h67.02545493L171.69165973 532.94545493c0-0.13791253 0.13791253-0.4137376 0.13791254-0.55165013 31.58195307-127.43111147 56.4061952-212.5230976 89.22936-270.4463296 37.5121888-66.19797973 87.16067307-97.09037013 156.25481493-97.0903712h331.1278112c68.95622933 0 118.6047136 30.8923904 156.25481493 97.0903712 32.8231648 57.923232 57.50949547 143.0152192 89.22936 270.4463296 12.4121216 50.75178453 7.03353493 90.7463968-15.99784426 118.88053867z m-49.64848534-149.22128c-26.34127893-96.12498347-46.89023573-160.3921888-74.1969024-203.9725248-31.16821547-49.92430933-72.40404053-73.23151467-129.7756224-73.23151467H449.17152533c-57.37158293 0-98.60740693 23.30720533-129.77562346 73.23151467-27.30666667 43.7182496-47.8556224 107.8475424-74.1969024 203.9725248 0 0.13791253-0.13791253 0.27582507-0.13791254 0.4137376l-29.09952853 116.3981152h-0.27582507l0.27582507 0.41373653 0.13791253-0.41373653h630.2599328c7.03353493 0.13791253 44.54572373-0.13791253 68.8183168-27.16875414 19.16983147-21.10060587 23.5830304-51.30343467 13.1016832-89.64309866z"  horiz-adv-x="1024" />

    
    <glyph glyph-name="tuandui" unicode="&#58887;" d="M938.667 106.667v19.2c0 8.533-2.134 17.066-2.134 25.6 36.267 12.8 44.8 55.466 44.8 91.733v14.933c0 42.667-61.866 85.334-119.466 93.867l-89.6 17.067 68.266 59.733c34.134 29.867 53.334 74.667 53.334 123.733 0 76.8-46.934 140.8-108.8 151.467L768 746.667c93.867 0 170.667-87.467 170.667-196.267 0-64-27.734-121.6-68.267-155.733 72.533-12.8 153.6-70.4 153.6-136.534V243.2c0-66.133-27.733-123.733-85.333-136.533zM665.6 337.067C774.4 315.733 896 230.4 896 128v-21.333c0-117.334-53.333-213.334-170.667-213.334H298.667c-117.334 0-170.667 96-170.667 213.334V128c0 102.4 121.6 187.733 230.4 209.067C296.533 390.4 256 477.867 256 576c0 164.267 115.2 298.667 256 298.667s256-134.4 256-300.8c0-98.134-40.533-183.467-102.4-236.8z m-260.267-38.4c-102.4 0-234.666-83.2-234.666-170.667v-21.333c0-51.2 12.8-170.667 128-170.667h426.666c115.2 0 128 119.467 128 170.667V128c0 87.467-132.266 170.667-234.666 170.667H608c-29.867-12.8-61.867-21.334-96-21.334s-66.133 8.534-96 21.334h-10.667zM512 832c-117.333 0-213.333-115.2-213.333-256s96-256 213.333-256 213.333 113.067 213.333 256c0 140.8-96 256-213.333 256zM401.067 610.133C398.933 601.6 390.4 595.2 379.733 595.2c-14.933 0-23.466 12.8-21.333 27.733 14.933 53.334 46.933 98.134 85.333 121.6 14.934 8.534 32-2.133 32-19.2 0-6.4-4.266-12.8-10.666-17.066-27.734-19.2-53.334-53.334-64-98.134zM128 550.4c0-49.067 19.2-96 53.333-123.733l68.267-59.734-89.6-17.066c-55.467-8.534-117.333-51.2-117.333-91.734V243.2c0-36.267 8.533-78.933 44.8-91.733 0-8.534-2.134-17.067-2.134-25.6v-19.2C27.733 119.467 0 177.067 0 243.2v14.933C0 326.4 81.067 381.867 153.6 394.667 110.933 430.933 85.333 486.4 85.333 550.4c0 108.8 76.8 196.267 170.667 196.267 0 0-12.8-32-19.2-44.8C174.933 691.2 128 627.2 128 550.4z"  horiz-adv-x="1024" />

    
    <glyph glyph-name="fenlei1" unicode="&#59091;" d="M368.081455 802.909091H184.738909C134.190545 802.909091 93.090909 761.809455 93.090909 711.214545v-183.296c0-50.501818 41.099636-91.648 91.694546-91.648h183.296c50.501818 0 91.648 41.146182 91.648 91.694546V711.214545C459.729455 761.809455 418.583273 802.909091 368.034909 802.909091z m46.126545-286.72c0-18.944-15.453091-34.443636-34.443636-34.443636H173.056a34.490182 34.490182 0 0 0-34.443636 34.443636V722.990545c0 19.037091 15.406545 34.443636 34.443636 34.443637h206.708364c18.990545 0 34.443636-15.406545 34.443636-34.443637v-206.708363zM786.990545 802.909091c50.501818 0 91.648-41.099636 91.648-91.694546v-183.296c0-50.501818-41.146182-91.648-91.694545-91.648H603.694545A91.741091 91.741091 0 0 0 512 527.965091V711.214545C512 761.809455 553.099636 802.909091 603.694545 802.909091h183.296z m46.126546-286.72V722.990545a34.490182 34.490182 0 0 1-34.443636 34.443637h-206.708364a34.490182 34.490182 0 0 1-34.443636-34.443637v-206.708363c0-18.990545 15.406545-34.443636 34.443636-34.443637h206.708364c18.990545 0 34.443636 15.453091 34.443636 34.443637z m-465.035636-141.312c50.501818 0 91.648-41.099636 91.648-91.648v-183.296c0-50.548364-41.146182-91.694545-91.694546-91.694546H184.785455A91.741091 91.741091 0 0 0 93.090909 99.933091v183.296c0 50.548364 41.099636 91.694545 91.694546 91.694545h183.296z m47.010909-287.325091V295.563636a34.722909 34.722909 0 0 1-34.629819 34.676364H172.357818a34.722909 34.722909 0 0 1-34.676363-34.676364v-208.058181c0-19.130182 15.546182-34.722909 34.676363-34.72291h208.058182c19.176727 0 34.722909 15.592727 34.722909 34.72291z m506.600727-70.330182a30.626909 30.626909 0 0 0 0-43.240727 30.626909 30.626909 0 0 0-43.194182 0l-68.189091 68.235636a182.318545 182.318545 0 0 0-106.170182-33.978182 183.528727 183.528727 0 0 0-183.342545 183.342546 183.528727 183.528727 0 0 0 183.342545 183.296 183.528727 183.528727 0 0 0 183.296-183.296c0-39.563636-12.567273-76.194909-33.978181-106.123636l68.235636-68.235637z m-351.045818 174.359273a133.632 133.632 0 0 1 133.492363-133.492364 133.632 133.632 0 0 1 133.492364 133.492364 133.632 133.632 0 0 1-133.492364 133.492364 133.632 133.632 0 0 1-133.492363-133.492364z"  horiz-adv-x="1024" />

    
    <glyph glyph-name="huiyuan" unicode="&#58912;" d="M328.8016-127.374361c-63.587647 0-115.060653 37.424572-137.640525 99.988447l-0.341257 1.137525-5.118863 20.47545-112.614974 399.271273C27.75561 413.006887 0 453.16152 0 499.686292c0 62.962008 50.619862 114.321262 112.899356 114.321262 62.222617 0 112.899356-51.188625 112.899355-114.321262v-9.782715c35.263275-28.153744 65.464563-31.964452 90.717619-31.964452 9.1002 0 17.859142 0.568762 26.333703 1.080648 8.247056 0.568762 16.095979 1.137525 23.489891 1.137525 70.754055 0 119.952011 115.913797 139.23306 189.397912-31.8507 29.234392-49.311709 66.772717-49.311709 106.642968C456.261275 834.57365 517.061986 896 594.584315 896s138.209287-61.42635 138.209286-139.858698a138.778049 138.778049 0 0 0-43.680959-101.069096c27.528105-79.057987 90.319485-189.966674 159.025994-189.966674 5.289491 0 10.408354 0 15.299711-0.113752 4.5501 0 9.043324-0.170629 13.479671-0.170629 32.419462 0 57.956898 2.218174 86.565652 29.348145V504.691402c0 62.962008 50.619862 114.207509 112.899356 114.207509 61.710731 0 112.501222-50.96112 118.018218-118.416352 0-47.548545-27.869362-87.81693-73.029104-107.21173l-122.909576-420.372362c-22.693624-63.24639-74.109753-100.670962-137.868029-100.670962H328.744723v0.398134zM113.013108 544.618529c-19.053544 0-39.13086-20.361697-39.13086-39.642746 0-19.11042 14.958454-39.58587 39.13086-39.58587h18.769163l121.828927-429.131304 5.118862-20.873583c8.758942-40.154632 34.296379-62.962008 69.957787-62.962009h532.191069c33.045101 0 60.459453 24.684292 69.957787 62.962009l10.351477 31.680071 121.715175 418.324816h13.877805c24.172406 0 39.187736 20.589202 39.187736 39.58587 0 18.996667-15.01533 39.642746-39.187736 39.642746a39.415241 39.415241 0 0 1-39.13086-39.642746c0-5.346367 0-15.299711 1.706287-17.461009l7.450789-7.507664-6.882026-8.19018c-59.549433-71.322817-129.677849-81.162408-196.507443-81.162409-132.294157 0-210.897134 181.093979-231.998222 256.511886h-7.678294v50.790491l7.848922 2.616308c27.3006 9.1002 42.77094 31.281937 42.77094 60.743835 0 34.865141-30.087536 65.293935-64.497667 65.293934-34.467007 0-64.554543-30.428794-64.554544-65.293934 0-26.902466 17.916019-52.439902 42.77094-60.743835l7.848923-2.616308v-45.045989l-0.113753-0.853144C564.212397 570.269718 494.25461 390.654521 361.505443 390.654521c-6.085759 0-12.683404-0.284381-19.56543-0.398134-8.133304-0.284381-16.778494-0.568762-25.708065-0.568762-48.572317 0-111.932459 8.758942-171.311264 76.782937l-5.118862 5.858254 3.469451 7.109531c4.5501 9.270829 8.929571 18.029771 8.929571 25.594312 0 18.939791-15.01533 39.58587-39.187736 39.58587z"  horiz-adv-x="1195" />

    
    <glyph glyph-name="ArtboardCopy" unicode="&#59861;" d="M455.70048-7.91552L58.5728 390.68672A60.4672 60.4672 0 0 0 40.96 433.70496c0 16.25088 6.18496 31.5392 17.6128 43.008l298.0864 299.20256A60.0064 60.0064 0 0 0 399.50336 793.6a60.0064 60.0064 0 0 0 42.8544-17.68448l101.90848-102.27712 97.60768 97.97632a60.0064 60.0064 0 0 0 42.8544 17.68448 60.0064 60.0064 0 0 0 42.8544-17.68448L975.6672 522.60864A60.4672 60.4672 0 0 0 993.28 479.5904c0-16.25088-6.1952-31.5392-17.6128-43.008l-111.90272-112.3328-5.71392 5.7344-4.7616-14.80704c-3.328-10.0352-7.61856-17.68448-13.80352-23.90016L541.3888-7.91552A60.0064 60.0064 0 0 0 498.56512-25.6a60.0064 60.0064 0 0 0-42.8544 17.68448z m-88.09472 722.65728L119.52128 465.7152a44.50304 44.50304 0 0 1-13.33248-32.02048c0-11.95008 4.77184-23.41888 13.34272-32.02048l347.58656-348.89728c8.58112-8.6016 19.52768-13.38368 31.90784-13.38368a44.98432 44.98432 0 0 1 31.90784 13.38368l18.56512 18.6368L355.2256 266.42432c-2.85696 2.8672-2.85696 8.13056 0 10.99776l24.76032 24.85248a7.87456 7.87456 0 0 0 5.71392 2.38592c1.90464 0 4.29056-0.95232 5.71392-2.38592l194.27328-195.01056 51.90656 52.10112-176.66048 177.31584c-2.85696 2.8672-2.85696 8.13056 0 10.99776l24.76032 24.85248a7.87456 7.87456 0 0 0 5.71392 2.38592c1.90464 0 4.29056-0.95232 5.71392-2.38592l176.66048-177.31584 51.89632 52.09088-159.03744 159.6416c-2.85696 2.8672-2.85696 8.12032 0 10.98752l24.76032 24.85248a7.87456 7.87456 0 0 0 5.71392 2.38592c1.90464 0 4.29056-0.95232 5.71392-2.38592l159.03744-159.6416 18.57536 18.64704a44.50304 44.50304 0 0 1 13.32224 32.02048 45.32224 45.32224 0 0 1-13.33248 32.02048L432.8448 714.752c-10.00448 8.6016-21.43232 13.38368-33.34144 13.38368a44.98432 44.98432 0 0 1-31.8976-13.38368z m285.21472-4.3008l-72.84736-73.13408 261.888-262.8608 72.8576 73.1136a44.50304 44.50304 0 0 1 13.32224 32.03072 44.50304 44.50304 0 0 1-13.33248 32.02048l-198.5536 199.30112c-8.57088 8.13056-19.51744 12.9024-31.42656 12.9024a44.98432 44.98432 0 0 1-31.8976-13.37344z"  horiz-adv-x="1024" />

    
    <glyph glyph-name="MemberCentre" unicode="&#58905;" d="M446.099126 361.591858A267.594911 267.594911 0 0 0 177.201416 627.10229a268.89771 268.89771 0 0 0 537.79542 0 267.594911 267.594911 0 0 0-268.89771-265.510432z m0 478.908905a215.482952 215.482952 0 0 1-216.785751-213.398473 216.785751 216.785751 0 0 1 433.571501 0A215.222392 215.222392 0 0 1 446.099126 840.500763zM638.131696 235.741476h72.956743v-18.239186h-72.956743v18.239186zM657.673681 219.065649h54.717557v-202.194402H657.673681zM892.177497 235.741476l-181.089058-218.870229-52.111959 52.111959 143.307888 167.539949zM746.524571-128a267.855471 267.855471 0 1 0 267.855471 267.855471 268.116031 268.116031 0 0 0-267.855471-267.855471z m0 483.598982a215.743511 215.743511 0 1 1 215.743512-215.743511 215.743511 215.743511 0 0 1-215.743512 215.743511zM306.439075-103.246819c-161.025954 0-300.164885 0-300.164886 117.251908v15.112468a299.643766 299.643766 0 0 0 300.164886 298.340967h152.427481a26.05598 26.05598 0 0 0 0-52.111959h-152.427481A247.531807 247.531807 0 0 1 58.386149 29.117557v-15.112468c0-62.013232 94.322646-65.139949 248.052926-65.139949a26.05598 26.05598 0 0 0 0-52.111959zM543.54849-103.246819h-237.109415a26.05598 26.05598 0 1 0 0 52.111959h237.109415a26.05598 26.05598 0 1 0 0-52.111959z"  horiz-adv-x="1024" />

    
    <glyph glyph-name="member_vipservice" unicode="&#58931;" d="M774.8 49.6H252.5c-27.4 0-50.5 20-55.1 47.5L182.2 190l29.6 4.9L227 102c2.1-13 12.9-22.4 25.5-22.4h522.3c12.6 0 23.3 9.4 25.5 22.4l68.9 415.4-181.3-116c-6.4-4.1-14.9-2.8-19.7 3.1L513.4 593.2 358.7 404.5c-4.9-5.9-13.4-7.2-19.8-3.1-1.3 0.9-130 84.7-180.2 116.2l43.7-266-29.6-4.9L128 519.6c-1.8 10.6 2.7 20.9 11.5 26.9 8.8 5.9 19.9 6.1 29 0.4 37.6-23.4 141.1-90.6 175.5-113l148.9 181.6c5.1 6.2 12.6 9.7 20.5 9.7s15.4-3.5 20.5-9.7L683 433.8l176.3 112.9c8.9 5.8 19.9 5.8 28.8 0 9-5.8 13.7-16.5 11.9-27.2l-70.1-422.4c-4.5-27.5-27.7-47.5-55.1-47.5zM671.2 205.7H197.1c-8.3 0-15-6.7-15-15s6.7-15 15-15h474.1c8.3 0 15 6.7 15 15s-6.7 15-15 15zM514.3 645.8c-39.1 0-71 31.9-71 71s31.9 71 71 71 71-31.9 71-71-31.8-71-71-71z m0 112c-22.6 0-41-18.4-41-41s18.4-41 41-41 41 18.4 41 41-18.3 41-41 41z"  horiz-adv-x="1024" />

    
    <glyph glyph-name="left" unicode="&#58625;" d="M511.609097-65.61925399999996M360.749204 384.989537L360.749204 384.989537l382.080022 382.074905c14.762215 14.788821 14.762215 38.777165 0 53.585429-14.812357 14.788821-38.799678 14.788821-53.607942 0L283.415908 414.798447c-1.107217-0.867764-2.190899-1.824555-3.206018-2.843768-14.788821-14.808264-14.788821-38.795585 0-53.585429l408.226518-408.230612c14.808264-14.807241 38.795585-14.807241 53.584406 0 14.785751 14.767332 14.785751 38.754652 0 53.562916L360.749204 384.989537 360.749204 384.989537zM360.749204 384.989537"  horiz-adv-x="1024" />

    
    <glyph glyph-name="xiangqing" unicode="&#59077;" d="M512-64A448 448 0 1 1 512 832a448 448 0 0 1 0-896z m0-64A512 512 0 1 0 512 896a512 512 0 0 0 0-1024zM550.4 601.6m-64 0a64 64 0 1 1 128 0 64 64 0 1 1-128 0ZM448 452.928S506.368 512 564.672 512c58.368 0 29.184-88.64 29.184-88.64s-47.36-147.648-58.368-206.72c-10.88-59.072 29.184-59.072 58.368-29.568 29.184 29.568-29.184-59.072-87.488-59.072-58.368 0-29.184 88.64-29.184 88.64s87.488 236.288 58.304 236.288H448z"  horiz-adv-x="1024" />

    
    <glyph glyph-name="you" unicode="&#58933;" d="M791.017372 378.921935c0-10.751128-4.095668-21.502256-12.287004-29.181633L312.336193-116.653874c-16.382671-15.870713-42.492554-14.846796-58.363267 1.535876-15.358754 15.870713-15.358754 40.956678 0 56.827391l466.394175 466.394175c15.870713 15.870713 41.980595 15.870713 58.363267 0 8.191336-7.679377 12.287004-18.430505 12.287004-29.181633M791.017372 378.921935c0-22.526173-17.918547-41.468637-40.956679-41.468637-11.263087 0-22.014215 4.095668-29.693592 12.287004L243.733756 826.885605c-15.358754 16.89463-14.334837 43.004512 2.559793 58.363267 15.870713 14.334837 39.932761 14.334837 55.803474 0l477.145304-477.145304c7.679377-7.679377 11.775045-18.430505 11.775045-29.181633"  horiz-adv-x="1024" />

    
    <glyph glyph-name="fenxiang" unicode="&#59378;" d="M509.453838 896a43.312432 43.312432 0 1 0 0-86.624865c-233.582703 0-422.939676-189.384649-422.939676-422.939676S275.871135-36.393514 509.453838-36.393514c233.582703 0 422.939676 189.356973 422.939676 422.939676a43.312432 43.312432 0 1 0 86.514162 0c0-281.350919-228.102919-509.453838-509.453838-509.453838S0 105.195243 0 386.546162 228.102919 896 509.453838 896z m262.227027-216.617514a42.592865 42.592865 0 0 0 60.471351 59.834811l74.585946-74.641297a57.510054 57.510054 0 0 0 0-81.421838l-74.585946-74.585946a42.537514 42.537514 0 0 0-60.111567 60.166919l12.647783 12.620108h-54.936216c-149.337946 0-200.039784-63.571027-200.039784-255.861621 0-23.552-18.985514-42.537514-42.565189-42.537514a42.454486 42.454486 0 0 0-42.509838 42.537514c0 237.76173 86.790919 340.936649 285.114811 340.936648h54.880865l-12.952216 12.952216z"  horiz-adv-x="1024" />

    
    <glyph glyph-name="integral" unicode="&#58937;" d="M810.016 471.008l-307.008-372-307.008 372q-3.008 4-4 11.008t0.992 11.008l56.992 136.992q0.992 4 6.016 7.008t8.992 3.008h476.992q3.008 0 8-3.488t7.008-6.496l56-136.992q2.016-4 0.992-11.008t-4-11.008z m61.984 46.976l-56 136q-10.016 22.016-30.496 36T742.016 704H264q-23.008 0-43.488-14.016t-30.496-36l-56-136q-8.992-22.016-4.992-46.016t18.016-42.016l311.008-376.992q18.016-20.992 44.992-22.016 27.008 0.992 44.992 22.016l311.008 378.016q15.008 18.016 18.496 41.504t-5.504 45.504zM615.008 512h-224q-14.016 0-23.008-8.992t-8.992-23.008 8.992-23.008 23.008-8.992h224q14.016 0 23.008 8.992t8.992 23.008-8.992 23.008-23.008 8.992z"  horiz-adv-x="1024" />

    
    <glyph glyph-name="tuandui1" unicode="&#58938;" d="M714.326021 315.041377c-160.666482 0-290.621494 129.955012-290.621494 290.621494C423.988892 766.044988 553.659539 896 714.326021 896s290.621494-129.955012 290.621494-290.621494-129.955012-290.337129-290.621494-290.337129z m0 512.710914c-123.130242 0-222.08942-99.243543-222.08942-222.08942 0-123.130242 99.243543-222.08942 222.08942-222.089419 123.130242 0 222.08942 99.243543 222.089419 222.089419 0.284365 122.845876-98.959178 222.08942-222.089419 222.08942z m0 0M1186.088309-126.009442h-68.247709c0 237.445154-177.728409 430.813663-396.405443 430.813663s-396.405443-193.084143-396.405443-430.813663h-68.247709c0 275.26576 208.439878 499.061372 464.937517 499.061372s464.368786-223.795612 464.368787-499.061372zM1040.777562 318.453763v68.247709c75.07248 0 136.779783 61.422938 136.779783 136.779783 0 75.07248-61.422938 136.779783-136.779783 136.779784v68.247709c112.893085 0 205.027492-92.418773 205.027492-205.027493 0-112.893085-92.134407-205.027492-205.027492-205.027492z m0 0M1435.761177-44.112191h-68.247709c0 196.496529-147.01694 355.456818-326.451541 355.456817v68.247709c216.686476 0.284365 394.69925-189.387392 394.69925-423.704526zM394.69925 318.453763c-112.893085 0-205.027492 92.418773-205.027492 205.027492 0 112.893085 92.418773 205.027492 205.027492 205.027493v-68.247709c-75.07248 0-136.779783-61.422938-136.779783-136.779784 0-75.07248 61.422938-136.779783 136.779783-136.779783v-68.247709z m0 0M68.247709-44.112191H0c0 234.032769 177.728409 423.988892 394.69925 423.988892v-68.247709C215.264649 311.344626 68.247709 152.668703 68.247709-44.112191z m0 0"  horiz-adv-x="1437" />

    


  </font>
</defs>
</svg>
